<svg width="22" height="21" viewBox="0 0 22 21" fill="" xmlns="http://www.w3.org/2000/svg">
<path d="M4.6978 20.5H0.152344V6.86364H4.6978V20.5ZM2.42598 5.04545C1.16871 5.04545 0.152344 4.02636 0.152344 2.77182C0.152344 1.51727 1.17053 0.5 2.42598 0.5C3.67871 0.5 4.6978 1.51909 4.6978 2.77182C4.6978 4.02636 3.67871 5.04545 2.42598 5.04545ZM21.0614 20.5H16.6914V13.8636C16.6914 12.2809 16.6614 10.2455 14.4196 10.2455C12.1442 10.2455 11.7942 11.9691 11.7942 13.7491V20.5H7.42507V6.85364H11.6196V8.71818H11.6787C12.2623 7.64545 13.6887 6.51455 15.816 6.51455C20.2433 6.51455 21.0614 9.34091 21.0614 13.0155C21.0614 13.0155 21.0614 20.5 21.0614 20.5Z" fill="currentcolor"/>
</svg>
