<svg width="212" height="36" viewBox="0 0 212 36" fill="none" xmlns="http://www.w3.org/2000/svg">
<path d="M1.71062 9.79144L1.5979 10.0814L9.54343 13.4884L9.65616 13.1985L1.71062 9.79144Z" fill="#33BC77"/>
<path d="M8.74613 4.49242L8.53241 4.71083L16.2461 13.0355L16.4598 12.8171L8.74613 4.49242Z" fill="#33BC77"/>
<path d="M23.5769 5.17407L16.3437 5.65733L16.3626 5.96987L23.5958 5.48662L23.5769 5.17407Z" fill="#33BC77"/>
<path d="M12.7364 0.911783L12.5053 1.10976L16.237 5.91326L16.468 5.71528L12.7364 0.911783Z" fill="#33BC77"/>
<path d="M19.8342 0.912284L16.237 5.71652L16.4714 5.91011L20.0686 1.10587L19.8342 0.912284Z" fill="#33BC77"/>
<path d="M1.80319 9.92378L1.50587 9.94792L2.19831 19.356L2.49563 19.3318L1.80319 9.92378Z" fill="#33BC77"/>
<path d="M9.50858 13.2217L2.25407 19.2215L2.43856 19.4675L9.69307 13.4678L9.50858 13.2217Z" fill="#33BC77"/>
<path d="M16.2613 12.8013L8.95057 18.8627L9.13535 19.1085L16.4461 13.0471L16.2613 12.8013Z" fill="#33BC77"/>
<path d="M9.03433 18.8295L2.33936 19.187L2.3545 19.4997L9.04947 19.1423L9.03433 18.8295Z" fill="#33BC77"/>
<path d="M8.78597 4.58466L8.48974 4.6206L9.45123 13.3612L9.74747 13.3253L8.78597 4.58466Z" fill="#33BC77"/>
<path d="M8.51753 4.5207L1.2563 9.82163L1.42628 10.0784L8.68751 4.77751L8.51753 4.5207Z" fill="#33BC77"/>
<path d="M12.5249 0.890115L8.54177 4.48183L8.73604 4.71944L12.7191 1.12773L12.5249 0.890115Z" fill="#33BC77"/>
<path d="M16.2447 5.70478L9.49317 13.2344L9.71026 13.4491L16.4618 5.91948L16.2447 5.70478Z" fill="#33BC77"/>
<path d="M16.3945 12.7743L16.3095 13.0745L23.0124 15.1677L23.0973 14.8675L16.3945 12.7743Z" fill="#33BC77"/>
<path d="M23.4392 5.31973L22.9072 15.0106L23.2049 15.0287L23.737 5.33776L23.4392 5.31973Z" fill="#33BC77"/>
<path d="M30.226 9.09082L22.9651 14.8978L23.1458 15.147L30.4067 9.33998L30.226 9.09082Z" fill="#33BC77"/>
<path d="M23.1047 14.8718L23.0093 15.1685L31.2365 18.0864L31.3319 17.7897L23.1047 14.8718Z" fill="#33BC77"/>
<path d="M30.4654 9.19281L30.1692 9.22903L31.1362 17.9532L31.4324 17.917L30.4654 9.19281Z" fill="#33BC77"/>
<path d="M23.7125 5.24423L23.4614 5.41324L31.1569 18.0216L31.408 17.8525L23.7125 5.24423Z" fill="#33BC77"/>
<path d="M20.0635 0.907494L19.8401 1.11493L23.4764 5.43447L23.6998 5.22703L20.0635 0.907494Z" fill="#33BC77"/>
<path d="M23.6578 5.18965L23.5142 5.46412L30.2438 9.34793L30.3874 9.07346L23.6578 5.18965Z" fill="#33BC77"/>
<path d="M19.9498 0.853415H12.62V1.16659H19.9498V0.853415Z" fill="#33BC77"/>
<path d="M16.4752 12.8346L16.231 13.0143L22.9341 23.0606L23.1783 22.8809L16.4752 12.8346Z" fill="#33BC77"/>
<path d="M23.1887 14.9505L22.921 15.0884L27.1142 24.0698L27.3819 23.9319L23.1887 14.9505Z" fill="#33BC77"/>
<path d="M31.1604 17.8489L27.1264 23.9129L27.3708 24.0922L31.4048 18.0283L31.1604 17.8489Z" fill="#33BC77"/>
<path d="M23.2047 15.0201H22.9065V22.9733H23.2047V15.0201Z" fill="#33BC77"/>
<path d="M16.4711 5.72026L16.2342 5.91047L22.9366 15.1171L23.1735 14.9269L16.4711 5.72026Z" fill="#33BC77"/>
<path d="M16.3143 5.66471L1.34566 9.78301L1.42123 10.086L16.3899 5.96766L16.3143 5.66471Z" fill="#33BC77"/>
<path d="M12.6733 0.863316L12.5686 1.15655L23.5345 5.47621L23.6393 5.18297L12.6733 0.863316Z" fill="#33BC77"/>
<path d="M19.9678 0.872864L8.62274 4.47214L8.70922 4.7728L20.0543 1.17352L19.9678 0.872864Z" fill="#33BC77"/>
<path d="M9.45195 13.3291L8.8937 18.9736L9.19031 19.0059L9.74856 13.3615L9.45195 13.3291Z" fill="#33BC77"/>
<path d="M23.0876 22.8168L23.0198 23.1218L27.2132 24.1498L27.2809 23.8449L23.0876 22.8168Z" fill="#33BC77"/>
<path d="M13.5832 36H18.6034L18.007 25.0293L23.0556 23.2708L17.1035 22.6648L16.3535 11.6738L14.6985 20.3535L8.63896 18.6029L14.4867 22.6648L13.5832 36Z" fill="#33BC77"/>
<path d="M16.3535 14.6646C17.2675 14.6646 18.0085 13.8864 18.0085 12.9265C18.0085 11.9665 17.2675 11.1883 16.3535 11.1883C15.4394 11.1883 14.6985 11.9665 14.6985 12.9265C14.6985 13.8864 15.4394 14.6646 16.3535 14.6646Z" fill="#33BC77"/>
<path d="M16.3535 7.55233C17.2675 7.55233 18.0085 6.77413 18.0085 5.81418C18.0085 4.85423 17.2675 4.07603 16.3535 4.07603C15.4394 4.07603 14.6985 4.85423 14.6985 5.81418C14.6985 6.77413 15.4394 7.55233 16.3535 7.55233Z" fill="#33BC77"/>
<path d="M1.65503 11.6738C2.56908 11.6738 3.31006 10.8956 3.31006 9.93562C3.31006 8.97567 2.56908 8.19748 1.65503 8.19748C0.740982 8.19748 0 8.97567 0 9.93562C0 10.8956 0.740982 11.6738 1.65503 11.6738Z" fill="#33BC77"/>
<path d="M31.283 19.6755C32.1971 19.6755 32.9381 18.8973 32.9381 17.9374C32.9381 16.9774 32.1971 16.1992 31.283 16.1992C30.369 16.1992 29.628 16.9774 29.628 17.9374C29.628 18.8973 30.369 19.6755 31.283 19.6755Z" fill="#33BC77"/>
<path d="M23.5864 7.0669C24.5005 7.0669 25.2414 6.2887 25.2414 5.32875C25.2414 4.3688 24.5005 3.5906 23.5864 3.5906C22.6724 3.5906 21.9314 4.3688 21.9314 5.32875C21.9314 6.2887 22.6724 7.0669 23.5864 7.0669Z" fill="#33BC77"/>
<path d="M9.04302 19.9981C9.57416 19.9981 10.0047 19.5459 10.0047 18.9881C10.0047 18.4303 9.57416 17.9781 9.04302 17.9781C8.51189 17.9781 8.08132 18.4303 8.08132 18.9881C8.08132 19.5459 8.51189 19.9981 9.04302 19.9981Z" fill="#33BC77"/>
<path d="M8.63896 5.61061C9.17009 5.61061 9.60067 5.15842 9.60067 4.60061C9.60067 4.0428 9.17009 3.5906 8.63896 3.5906C8.10782 3.5906 7.67725 4.0428 7.67725 4.60061C7.67725 5.15842 8.10782 5.61061 8.63896 5.61061Z" fill="#33BC77"/>
<path d="M12.62 2.02001C13.1511 2.02001 13.5817 1.56781 13.5817 1.01C13.5817 0.452195 13.1511 0 12.62 0C12.0888 0 11.6583 0.452195 11.6583 1.01C11.6583 1.56781 12.0888 2.02001 12.62 2.02001Z" fill="#33BC77"/>
<path d="M19.9513 2.02001C20.4824 2.02001 20.913 1.56781 20.913 1.01C20.913 0.452195 20.4824 0 19.9513 0C19.4202 0 18.9896 0.452195 18.9896 1.01C18.9896 1.56781 19.4202 2.02001 19.9513 2.02001Z" fill="#33BC77"/>
<path d="M2.34686 20.3535C2.878 20.3535 3.30857 19.9014 3.30857 19.3435C3.30857 18.7857 2.878 18.3335 2.34686 18.3335C1.81573 18.3335 1.38516 18.7857 1.38516 19.3435C1.38516 19.9014 1.81573 20.3535 2.34686 20.3535Z" fill="#33BC77"/>
<path d="M9.60067 14.5221C10.2207 14.5221 10.7234 13.9942 10.7234 13.343C10.7234 12.6918 10.2207 12.1639 9.60067 12.1639C8.9806 12.1639 8.47793 12.6918 8.47793 13.343C8.47793 13.9942 8.9806 14.5221 9.60067 14.5221Z" fill="#33BC77"/>
<path d="M23.0556 16.0348C23.5892 16.0348 24.0218 15.5805 24.0218 15.0201C24.0218 14.4597 23.5892 14.0054 23.0556 14.0054C22.522 14.0054 22.0894 14.4597 22.0894 15.0201C22.0894 15.5805 22.522 16.0348 23.0556 16.0348Z" fill="#33BC77"/>
<path d="M30.3154 10.2269C30.849 10.2269 31.2816 9.77258 31.2816 9.21218C31.2816 8.65177 30.849 8.19748 30.3154 8.19748C29.7818 8.19748 29.3492 8.65177 29.3492 9.21218C29.3492 9.77258 29.7818 10.2269 30.3154 10.2269Z" fill="#33BC77"/>
<path d="M23.0556 23.6889C23.4328 23.6889 23.7385 23.3678 23.7385 22.9717C23.7385 22.5756 23.4328 22.2545 23.0556 22.2545C22.6785 22.2545 22.3727 22.5756 22.3727 22.9717C22.3727 23.3678 22.6785 23.6889 23.0556 23.6889Z" fill="#33BC77"/>
<path d="M27.2484 25.0293C27.7894 25.0293 28.228 24.5687 28.228 24.0005C28.228 23.4323 27.7894 22.9717 27.2484 22.9717C26.7073 22.9717 26.2688 23.4323 26.2688 24.0005C26.2688 24.5687 26.7073 25.0293 27.2484 25.0293Z" fill="#33BC77"/>
<path d="M40.2799 2.86403H48.728C53.875 2.86403 56.0757 5.99582 56.0757 11.4389C56.0757 17.3658 53.0236 19.6395 48.3731 19.6395H45.4984V33.0608H40.2799V2.86403ZM47.5217 15.7623C50.3964 15.7623 51.1419 14.6067 51.1419 11.4013C51.1419 8.15833 50.7513 6.74119 47.5217 6.74119H45.4984V15.7623H47.5217Z" fill="#33BC77"/>
<path d="M58.9862 2.86403H65.903C71.6538 2.86403 74.9192 4.80261 74.9192 10.8799C74.9192 14.4955 74.0678 17.0307 71.3691 18.1863L75.3814 33.0624H70.133L66.6902 19.2324H64.2047V33.0624H58.9862V2.86403ZM65.8732 15.7999C68.891 15.7999 69.9914 14.4204 69.9914 11.1774C69.9914 8.12075 69.1743 6.63628 66.1565 6.63628H64.2047V15.7999H65.8732Z" fill="#33BC77"/>
<path d="M78.2963 23.5918V12.2579C78.2963 6.15085 80.427 2.52736 86.6028 2.52736C92.7443 2.52736 94.875 6.14458 94.875 12.2579V23.5918C94.875 29.6691 92.7443 33.4711 86.6028 33.4711C80.3912 33.4711 78.2963 29.7067 78.2963 23.5918ZM89.549 24.8962V10.991C89.549 8.45585 89.1599 6.55485 86.6028 6.55485C84.0457 6.55485 83.6208 8.45585 83.6208 10.991V24.8962C83.6208 27.4016 84.0114 29.4076 86.6028 29.4076C89.1629 29.4076 89.549 27.3954 89.549 24.8962Z" fill="#33BC77"/>
<path d="M98.7427 2.86403H110.563V6.66603H103.961V15.4648H109.357V19.3044H103.961V33.0608H98.7427V2.86403Z" fill="#33BC77"/>
<path d="M113.545 2.86403H118.728V33.0608H113.545V2.86403Z" fill="#33BC77"/>
<path d="M123.158 2.86403H128.377V29.2964H135.37V33.0545H123.158V2.86403Z" fill="#33BC77"/>
<path d="M138.109 2.86403H150.186V6.74119H143.327V15.4272H148.723V19.2668H143.327V29.2964H150.25V33.0545H138.109V2.86403Z" fill="#33BC77"/>
<path d="M157.205 5.06255H151.775V2.87029H165.194V5.06255H159.906V33.0608H157.207L157.205 5.06255Z" fill="#33BC77"/>
<path d="M168.352 2.86403H174.849C180.216 2.86403 181.983 5.7719 181.983 10.5369C181.983 13.9678 181.132 16.9117 178.008 17.6211L182.41 33.0545H179.782L175.558 18.2271H171.05V33.0639H168.352V2.86403ZM174.706 16.135C178.256 16.135 179.356 14.2716 179.356 10.5432C179.356 6.81479 178.433 4.98895 174.777 4.98895H171.05V16.135H174.706Z" fill="#33BC77"/>
<path d="M186.491 2.86403H196.892V5.05629H189.224V16.3903H195.472V18.4776H189.224V30.9296H196.963V33.0545H186.491V2.86403Z" fill="#33BC77"/>
<path d="M200.618 2.86403H211.019V5.05629H203.352V16.3903H209.6V18.4776H203.352V30.9296H211.091V33.0545H200.618V2.86403Z" fill="#33BC77"/>
</svg>
